<svg width="99" height="100" viewBox="0 0 99 100" fill="none" xmlns="http://www.w3.org/2000/svg">
<path d="M84.8572 0.692383H99V14.8352H84.8572V0.692383ZM84.8572 21.9067H99V36.0495H84.8572V21.9067ZM63.6429 0.692383H77.7857V14.8352H63.6429V0.692383ZM63.6429 21.9067H77.7857V36.0495H63.6429V21.9067Z" fill="#5A4DC9"/>
<path d="M91.9286 50.1922V71.4065H7.07143V14.8351H49.5V7.76367H7.07143C5.19597 7.76367 3.39732 8.50869 2.07117 9.83485C0.745023 11.161 0 12.9596 0 14.8351V71.4065C0 73.282 0.745023 75.0806 2.07117 76.4068C3.39732 77.7329 5.19597 78.478 7.07143 78.478H35.3571V92.6208H21.2143V99.6922H77.7857V92.6208H63.6429V78.478H91.9286C93.804 78.478 95.6027 77.7329 96.9288 76.4068C98.255 75.0806 99 73.282 99 71.4065V50.1922H91.9286ZM56.5714 92.6208H42.4286V78.478H56.5714V92.6208Z" fill="#5A4DC9"/>
</svg>
